Coordinates
version=1
nRows=18
nColumns=26
inDegrees=yes

Units are S.I. units (second, meters, Newtons, ...)
Angles are in degrees.

endheader
time	pelvis_tilt	pelvis_list	pelvis_rotation	pelvis_tx	pelvis_ty	pelvis_tz	hip_flexion_r	hip_adduction_r	hip_rotation_r	knee_angle_r	knee_angle_r_beta	ankle_angle_r	subtalar_angle_r	mtp_angle_r	hip_flexion_l	hip_adduction_l	hip_rotation_l	knee_angle_l	knee_angle_l_beta	ankle_angle_l	subtalar_angle_l	mtp_angle_l	lumbar_extension	lumbar_bending	lumbar_rotation
      0.00000000	      5.28994012	     -3.90186447	     -1.20648035	      0.01064929	      0.98291769	      0.15625043	    -19.77217649	      3.57985249	      0.98684304	      9.68054180	      9.68054180	     12.02726133	      0.00000000	      0.00000000	     22.46168175	     -8.12700648	    -12.93613589	     14.35056176	     14.35056176	     -1.54467819	      0.00000000	      0.00000000	    -19.76105848	      3.86142119	      8.10706625
      0.00833333	      5.45610969	     -3.88961675	     -1.57740611	      0.02075450	      0.98243771	      0.15489776	    -20.13570767	      3.27170608	      0.97794559	     10.49164916	     10.49164916	     11.95107788	      0.00000000	      0.00000000	     21.76197909	     -8.04305095	    -13.15663363	     14.49518044	     14.49518044	     -1.80964992	      0.00000000	      0.00000000	    -19.80248526	      3.73786335	      8.36539813
      0.01666667	      5.50676085	     -3.85850197	     -1.93605300	      0.03093476	      0.98185047	      0.15323703	    -20.23581901	      2.89501685	      0.88953675	     11.54030664	     11.54030664	     11.99686074	      0.00000000	      0.00000000	     21.09804102	     -7.87026487	    -13.18202127	     14.28235654	     14.28235654	     -3.02722858	      0.00000000	      0.00000000	    -19.68582489	      3.63882123	      8.53731356
      0.02500000	      5.51063397	     -3.89234806	     -2.25272148	      0.04108085	      0.98141561	      0.15161461	    -20.19163952	      2.61836240	      0.83575102	     12.74085607	     12.74085607	     11.83985302	      0.00000000	      0.00000000	     20.55070134	     -7.78194352	    -13.00240707	     14.19989764	     14.19989764	     -4.51234689	      0.00000000	      0.00000000	    -19.49639498	      3.61398545	      8.59599457
      0.03333333	      5.46596929	     -3.86807600	     -2.49424812	      0.05128108	      0.98104882	      0.14987606	    -19.97624764	      2.29414789	      0.74581481	     14.16777136	     14.16777136	     11.69748329	      0.00000000	      0.00000000	     20.04912235	     -7.65716370	    -12.96715966	     14.03985556	     14.03985556	     -6.05552508	      0.00000000	      0.00000000	    -19.25531017	      3.52877017	      8.53356297
      0.04166667	      5.44181865	     -3.87859145	     -2.74656464	      0.06146081	      0.98088542	      0.14828755	    -19.64363440	      2.00537068	      0.64696972	     15.82494739	     15.82494739	     11.47390797	      0.00000000	      0.00000000	     19.59776347	     -7.66264399	    -13.13627400	     14.10983639	     14.10983639	     -7.20880035	      0.00000000	      0.00000000	    -19.03970910	      3.44093934	      8.47203655
      0.05000000	      5.46474279	     -3.83104326	     -2.94630901	      0.07171300	      0.98098323	      0.14681615	    -19.25050219	      1.66172880	      0.45454636	     17.65931563	     17.65931563	     11.08894089	      0.00000000	      0.00000000	     19.23598906	     -7.67644668	    -13.44635498	     14.62979419	     14.62979419	     -7.53156876	      0.00000000	      0.00000000	    -18.87059559	      3.26822291	      8.32850888
      0.05833333	      5.40217734	     -3.69537548	     -3.09245312	      0.08171602	      0.98127499	      0.14522142	    -18.57728489	      1.22067268	      0.22550103	     19.75377727	     19.75377727	     10.60458786	      0.00000000	      0.00000000	     19.14501308	     -7.62170998	    -13.58312711	     15.59813047	     15.59813047	     -7.05964203	      0.00000000	      0.00000000	    -18.63840347	      3.01551060	      8.08033127
      0.06666667	      5.36700846	     -3.44356059	     -3.12464706	      0.09139106	      0.98192945	      0.14340385	    -17.71434705	      0.65764465	     -0.19337014	     22.18802669	     22.18802669	      9.93453167	      0.00000000	      0.00000000	     19.17961304	     -7.39366341	    -13.48350671	     16.87237904	     16.87237904	     -6.10352634	      0.00000000	      0.00000000	    -18.47235600	      2.63812520	      7.73046972
      0.07500000	      5.44259126	     -3.00732875	     -3.13101787	      0.10103281	      0.98309983	      0.14160332	    -16.84572709	     -0.10588758	     -0.57550785	     24.77249751	     24.77249751	      9.07928628	      0.00000000	      0.00000000	     19.01136563	     -6.92677910	    -13.41739102	     18.01683094	     18.01683094	     -5.14020407	      0.00000000	      0.00000000	    -18.45480932	      2.04897003	      7.32505471
      0.08333333	      5.60837514	     -2.51887210	     -3.15406237	      0.11061748	      0.98456488	      0.13974533	    -15.93046000	     -0.96844158	     -0.93426374	     27.46912228	     27.46912228	      8.01662608	      0.00000000	      0.00000000	     18.77114221	     -6.43246668	    -13.37167536	     19.21981178	     19.21981178	     -4.14899606	      0.00000000	      0.00000000	    -18.56134464	      1.39416380	      6.99209628
      0.09166667	      5.90357776	     -2.03059147	     -3.18447106	      0.12008466	      0.98641256	      0.13791397	    -14.97411020	     -1.86546326	     -1.31051607	     30.46141637	     30.46141637	      6.68703847	      0.00000000	      0.00000000	     18.23047048	     -5.89011874	    -13.34148346	     20.10225902	     20.10225902	     -3.33386606	      0.00000000	      0.00000000	    -18.84417269	      0.74645789	      6.69997259
      0.10000000	      6.18558509	     -1.52273062	     -3.25396720	      0.12953846	      0.98819382	      0.13603046	    -13.86161093	     -2.82906076	     -1.60194125	     33.59314141	     33.59314141	      5.16817723	      0.00000000	      0.00000000	     17.48807182	     -5.23894247	    -13.40658472	     20.50047209	     20.50047209	     -2.70782344	      0.00000000	      0.00000000	    -19.10990991	      0.09865060	      6.46726445
      0.10833333	      6.44053815	     -1.05994736	     -3.32523202	      0.13891862	      0.98984781	      0.13419058	    -12.61087560	     -3.74431206	     -1.81903631	     36.81393611	     36.81393611	      3.41929804	      0.00000000	      0.00000000	     16.61062281	     -4.57784609	    -13.56637640	     20.55462556	     20.55462556	     -2.14791567	      0.00000000	      0.00000000	    -19.34728424	     -0.47486772	      6.23918103
      0.11666667	      6.61017896	     -0.64867865	     -3.42479281	      0.14829645	      0.99114761	      0.13220536	    -11.17934978	     -4.62991997	     -1.95378852	     40.08172278	     40.08172278	      1.55190135	      0.00000000	      0.00000000	     15.80708616	     -3.98951870	    -13.91787578	     20.62028826	     20.62028826	     -1.47541425	      0.00000000	      0.00000000	    -19.45074552	     -0.95773796	      6.06872595
      0.12500000	      6.69261227	     -0.23798297	     -3.53697086	      0.15751568	      0.99232407	      0.13056822	     -9.56431042	     -5.48846933	     -2.00357638	     43.36446740	     43.36446740	     -0.29605504	      0.00000000	      0.00000000	     14.97654084	     -3.37005614	    -14.20269997	     20.40250657	     20.40250657	     -0.87199941	      0.00000000	      0.00000000	    -19.44492948	     -1.45418005	      5.86722417
      0.13333333	      6.76134185	      0.14125182	     -3.64776353	      0.16655244	      0.99356246	      0.12883383	     -7.89583172	     -6.29822801	     -1.96954852	     46.55255821	     46.55255821	     -2.36137770	      0.00000000	      0.00000000	     14.11978494	     -2.74237417	    -14.47839008	     20.06509385	     20.06509385	     -0.33794666	      0.00000000	      0.00000000	    -19.41861127	     -1.88538510	      5.65552958
      0.14166667	      6.80280671	      0.57276204	     -3.67330609	      0.17531312	      0.99467680	      0.12724676	     -6.20315527	     -7.13338561	     -2.01980399	     49.63801173	     49.63801173	     -4.03375689	      0.00000000	      0.00000000	     13.30484805	     -2.05444867	    -14.68341246	     19.68883246	     19.68883246	      0.14788749	      0.00000000	      0.00000000	    -19.36662548	     -2.36175759	      5.30404032
